<svg width="120" height="29" viewBox="0 0 120 29" fill="none" xmlns="http://www.w3.org/2000/svg">
<path d="M106.901 26.0111C104.872 26.0111 102.985 25.8147 101.24 25.422C99.4941 25.0074 97.9777 24.3311 96.6905 23.3929C96.3253 23.1206 95.9838 22.8219 95.666 22.4968C94.3384 21.1389 95.3476 19.0469 97.1686 18.5077C98.5593 18.0959 100.005 18.7869 101.109 19.7274C101.72 20.2074 102.516 20.5674 103.498 20.8074C104.48 21.0256 105.745 21.1347 107.294 21.1347C109.192 21.1347 110.632 20.9274 111.614 20.5129C112.596 20.0984 113.087 19.5638 113.087 18.9093C113.087 18.4074 112.847 17.982 112.367 17.6329C111.887 17.2838 110.97 17.0329 109.618 16.8802L103.301 16.0947C100.378 15.7238 98.1959 15.0038 96.7559 13.9347C95.3159 12.8656 94.5959 11.382 94.5959 9.4838C94.5959 7.8038 95.0977 6.41835 96.1014 5.32744C97.105 4.21472 98.5232 3.38562 100.356 2.84017C102.21 2.27289 104.37 1.98926 106.836 1.98926C108.625 1.98926 110.327 2.17471 111.941 2.54562C113.578 2.91653 115.029 3.54926 116.294 4.4438C116.704 4.72877 117.087 5.05027 117.441 5.4083C118.709 6.6877 117.812 8.68037 116.092 9.21355C114.727 9.6365 113.32 8.91554 112.152 8.09356C111.79 7.83901 111.392 7.63697 110.96 7.48744C109.781 7.0729 108.232 6.86562 106.312 6.86562C104.698 6.86562 103.4 7.04017 102.418 7.38926C101.458 7.71653 100.978 8.19653 100.978 8.82926C100.978 9.37471 101.24 9.81108 101.763 10.1384C102.309 10.4656 103.192 10.7056 104.414 10.8584L111.352 11.7093C114.189 12.0584 116.261 12.7893 117.57 13.902C118.88 15.0147 119.534 16.4874 119.534 18.3202C119.534 20.022 119.01 21.4511 117.963 22.6074C116.916 23.742 115.443 24.5929 113.545 25.1602C111.647 25.7274 109.432 26.0111 106.901 26.0111Z" fill="#EFEFEF"/>
<path d="M87.6846 25.9143C85.8806 25.9143 84.4181 24.4518 84.4181 22.6478V13.7021C84.4181 11.898 85.8806 10.4355 87.6846 10.4355C89.4886 10.4355 90.9511 11.898 90.9511 13.7021V22.6478C90.9511 24.4518 89.4886 25.9143 87.6846 25.9143Z" fill="#EFEFEF"/>
<circle cx="87.7135" cy="5.54909" r="3.52273" fill="#EFEFEF"/>
<path d="M69.2522 26.0111C67.2231 26.0111 65.3358 25.8147 63.5904 25.422C61.8449 25.0074 60.3286 24.3311 59.0413 23.3929C58.6761 23.1206 58.3346 22.8219 58.0168 22.4968C56.6892 21.1389 57.6985 19.0469 59.5194 18.5077C60.9101 18.0959 62.3554 18.7869 63.4595 19.7274C64.0704 20.2074 64.8667 20.5674 65.8486 20.8074C66.8304 21.0256 68.0958 21.1347 69.6449 21.1347C71.5431 21.1347 72.9831 20.9274 73.9649 20.5129C74.9467 20.0984 75.4377 19.5638 75.4377 18.9093C75.4377 18.4074 75.1977 17.982 74.7177 17.6329C74.2377 17.2838 73.3213 17.0329 71.9686 16.8802L65.6522 16.0947C62.7286 15.7238 60.5467 15.0038 59.1067 13.9347C57.6667 12.8656 56.9467 11.382 56.9467 9.4838C56.9467 7.8038 57.4486 6.41835 58.4522 5.32744C59.4558 4.21472 60.874 3.38562 62.7067 2.84017C64.5613 2.27289 66.7213 1.98926 69.1867 1.98926C70.9758 1.98926 72.6777 2.17471 74.2922 2.54562C75.9286 2.91653 77.3795 3.54926 78.6449 4.4438C79.055 4.72877 79.4374 5.05027 79.7921 5.4083C81.0597 6.6877 80.1627 8.68037 78.4424 9.21355C77.0778 9.6365 75.671 8.91554 74.5024 8.09356C74.1406 7.83901 73.7432 7.63697 73.3104 7.48744C72.1322 7.0729 70.5831 6.86562 68.6631 6.86562C67.0486 6.86562 65.7504 7.04017 64.7686 7.38926C63.8086 7.71653 63.3286 8.19653 63.3286 8.82926C63.3286 9.37471 63.5904 9.81108 64.114 10.1384C64.6595 10.4656 65.5431 10.7056 66.7649 10.8584L73.7031 11.7093C76.5395 12.0584 78.6122 12.7893 79.9213 13.902C81.2304 15.0147 81.8849 16.4874 81.8849 18.3202C81.8849 20.022 81.3613 21.4511 80.314 22.6074C79.2667 23.742 77.794 24.5929 75.8958 25.1602C73.9977 25.7274 71.7831 26.0111 69.2522 26.0111Z" fill="#EFEFEF"/>
<path d="M37.0697 5.42635L29.3486 21.2702C28.4018 23.2131 29.8166 25.4764 31.9779 25.4764C33.1216 25.4764 34.1604 24.8099 34.6369 23.7702L36.3664 19.9968L41.0539 10.0114C41.3808 9.31508 42.3719 9.31718 42.6959 10.0149L45.2708 15.5609L47.293 19.9968L49.0028 23.6794C49.5117 24.7753 50.6102 25.4764 51.8185 25.4764C54.1124 25.4764 55.614 23.0743 54.6091 21.0122L47.0137 5.42635C46.0871 3.52483 44.157 2.31836 42.0417 2.31836C39.9264 2.31836 37.9964 3.52483 37.0697 5.42635Z" fill="#EFEFEF"/>
<path d="M42.0417 14.5869L42.0603 14.6178C42.1494 14.7482 42.4979 15.1476 42.9286 15.6802C42.9361 15.6895 42.9437 15.6988 42.9512 15.7082C43.1685 15.9775 43.4058 16.2796 43.6401 16.598C43.6509 16.6125 43.6614 16.6273 43.6721 16.6419C43.71 16.6936 43.7477 16.7457 43.7853 16.7982C43.7955 16.8123 43.8056 16.8266 43.8157 16.8408C43.8496 16.8883 43.8833 16.9361 43.9167 16.9842C43.9321 17.0063 43.9473 17.0285 43.9626 17.0507C43.9938 17.096 44.0248 17.1415 44.0554 17.187C44.0709 17.21 44.0863 17.233 44.1016 17.256C44.1301 17.299 44.1583 17.3419 44.1861 17.385C44.2026 17.4104 44.219 17.4359 44.2352 17.4613C44.2613 17.5023 44.2868 17.5433 44.3122 17.5843C44.3301 17.6132 44.3478 17.642 44.3652 17.6709C44.3883 17.7089 44.4108 17.747 44.4332 17.7849C44.4498 17.8132 44.4665 17.8413 44.4827 17.8695C44.5042 17.9071 44.5252 17.9446 44.5459 17.982C44.5673 18.0205 44.5886 18.0587 44.6089 18.097C44.6144 18.1073 44.62 18.1176 44.6254 18.1278C44.6323 18.1411 44.6392 18.1544 44.646 18.1676C44.6565 18.1878 44.6669 18.208 44.6771 18.2282C44.6839 18.2417 44.6908 18.2553 44.6975 18.2688C44.7063 18.2866 44.7151 18.3043 44.7237 18.322C44.7316 18.3383 44.7391 18.3545 44.7468 18.3707C44.7556 18.3892 44.7642 18.4077 44.7727 18.4261C44.7784 18.4384 44.7841 18.4506 44.7896 18.4628C44.7985 18.4826 44.8072 18.5023 44.8158 18.522C44.8221 18.5365 44.8283 18.5511 44.8344 18.5655C44.8415 18.5822 44.8485 18.5989 44.8553 18.6155C44.8613 18.6299 44.8671 18.6444 44.8728 18.6587C44.8785 18.6729 44.884 18.687 44.8895 18.7011C44.8973 18.7214 44.9052 18.7416 44.9126 18.7617C44.9163 18.7719 44.9198 18.7822 44.9234 18.7923C44.9299 18.8103 44.9363 18.8281 44.9423 18.8458C44.9468 18.8592 44.9511 18.8725 44.9554 18.8858C44.9619 18.9056 44.9683 18.9252 44.9743 18.9448C44.9765 18.952 44.9784 18.9592 44.9805 18.9664C44.9867 18.9871 44.9926 19.0078 44.9982 19.0283C45.0013 19.0396 45.0042 19.051 45.0071 19.0622C45.012 19.081 45.0167 19.0996 45.0211 19.1182C45.0237 19.1291 45.026 19.1401 45.0284 19.151C45.032 19.1675 45.0357 19.1838 45.0389 19.2001C45.0413 19.2128 45.0435 19.2254 45.0457 19.238C45.0484 19.2533 45.0512 19.2684 45.0535 19.2835C45.0561 19.3007 45.058 19.3178 45.0602 19.3348C45.0615 19.3456 45.0632 19.3563 45.0644 19.367C45.0654 19.3764 45.0658 19.3858 45.0666 19.3952C45.0705 19.4394 45.0733 19.4827 45.0733 19.525C45.0733 20.2313 44.8317 20.8813 44.4267 21.3967C44.3967 21.4349 44.3657 21.4723 44.334 21.509C44.2704 21.5823 44.2035 21.6527 44.1333 21.7196C44.0982 21.7531 44.0623 21.7857 44.0257 21.8175C43.8912 21.9339 43.7462 22.0386 43.5927 22.1302C43.5368 22.1635 43.4799 22.1954 43.4218 22.2252C43.4 22.2363 43.3781 22.2472 43.3561 22.2578C43.3119 22.2791 43.2671 22.2992 43.2218 22.3184C43.1991 22.328 43.1762 22.3373 43.1532 22.3464C43.0844 22.3735 43.0144 22.3984 42.9432 22.4205C42.8246 22.4574 42.7028 22.4873 42.5784 22.5095C42.5316 22.5179 42.4844 22.5248 42.437 22.531C42.4086 22.5347 42.3801 22.5381 42.3515 22.541C42.2751 22.5488 42.1978 22.5539 42.1198 22.5559C42.0939 22.5565 42.0678 22.5568 42.0417 22.5568L41.9633 22.5557C41.8949 22.5539 41.8271 22.5497 41.7598 22.5435C41.7487 22.5424 41.7376 22.5415 41.7265 22.5403C41.683 22.5358 41.6397 22.5303 41.5967 22.5239C41.5925 22.5233 41.5882 22.5228 41.584 22.5222C41.5747 22.5207 41.5654 22.5192 41.5561 22.5177C41.5393 22.515 41.5226 22.5123 41.5059 22.5093C41.4187 22.4937 41.3329 22.4744 41.2485 22.4516C41.2149 22.4425 41.1816 22.4329 41.1486 22.4227C41.1351 22.4186 41.1216 22.4142 41.1082 22.4098C41.0978 22.4065 41.0873 22.4033 41.0769 22.3999C41.0389 22.3871 41.0013 22.3734 40.9639 22.3592C40.9553 22.356 40.9467 22.3528 40.9382 22.3495C40.9248 22.3442 40.9115 22.3387 40.8982 22.3333C40.8893 22.3297 40.8804 22.3261 40.8716 22.3224C40.8587 22.317 40.846 22.3115 40.8332 22.306C40.823 22.3016 40.8129 22.2972 40.8028 22.2927C40.7916 22.2876 40.7804 22.2825 40.7693 22.2773C40.7589 22.2725 40.7485 22.2678 40.7382 22.2629C40.723 22.2557 40.708 22.248 40.6929 22.2405C40.6866 22.2374 40.6803 22.2343 40.6741 22.2312C40.6576 22.2228 40.6413 22.2143 40.625 22.2057C40.621 22.2035 40.617 22.2016 40.613 22.1994C40.5971 22.1909 40.5813 22.1823 40.5655 22.1735C40.5588 22.1697 40.552 22.166 40.5453 22.1622C40.5332 22.1553 40.5212 22.1481 40.5092 22.1411C40.4995 22.1354 40.4899 22.1297 40.4803 22.124C40.4686 22.117 40.457 22.1098 40.4455 22.1027C40.4385 22.0983 40.4315 22.094 40.4246 22.0896C40.3475 22.0408 40.2726 21.9888 40.2004 21.9335C40.1957 21.9299 40.191 21.9261 40.1862 21.9225C40.153 21.8967 40.1202 21.8703 40.0881 21.8432C40.0844 21.8401 40.0807 21.8368 40.077 21.8337C40.0441 21.8056 40.0117 21.777 39.98 21.7476C39.9768 21.7446 39.9737 21.7415 39.9705 21.7385C39.9386 21.7086 39.9074 21.6782 39.8768 21.647C39.8738 21.6439 39.8708 21.6408 39.8677 21.6377C39.8377 21.6068 39.8083 21.5753 39.7796 21.5431C39.775 21.5379 39.7705 21.5326 39.7659 21.5274C39.7394 21.4974 39.7134 21.467 39.6882 21.4359C39.6835 21.4302 39.6788 21.4244 39.6742 21.4186C39.6479 21.3857 39.6222 21.3523 39.5972 21.3183C39.5951 21.3155 39.5931 21.3125 39.591 21.3097C39.5652 21.2743 39.5402 21.2385 39.5159 21.202C39.5109 21.1944 39.5058 21.1868 39.5009 21.1792C39.4938 21.1683 39.4867 21.1575 39.4798 21.1465C39.4745 21.1382 39.4692 21.1298 39.464 21.1214C39.4559 21.1084 39.448 21.0952 39.44 21.0819C39.436 21.0752 39.432 21.0685 39.4281 21.0617C39.4081 21.028 39.3887 20.9938 39.3701 20.9592C39.3651 20.9498 39.3602 20.9403 39.3553 20.9308C39.3394 20.9006 39.3239 20.8702 39.3091 20.8394L39.3002 20.8207C39.2981 20.8163 39.2961 20.8118 39.294 20.8074C39.2867 20.7918 39.2795 20.7763 39.2725 20.7606C39.2686 20.7519 39.2649 20.7433 39.2612 20.7346C39.236 20.6768 39.2124 20.618 39.1908 20.5584C39.1883 20.5514 39.1859 20.5445 39.1835 20.5375C39.1701 20.4999 39.1574 20.462 39.1455 20.4237C39.1333 20.3843 39.122 20.3445 39.1113 20.3045C39.0454 20.0558 39.0101 19.7945 39.0101 19.525C39.0101 19.4738 39.0131 19.421 39.0188 19.367C39.0199 19.3563 39.0217 19.3456 39.023 19.3348C39.0251 19.3178 39.027 19.3007 39.0297 19.2835C39.032 19.2684 39.0349 19.2533 39.0377 19.238C39.0399 19.2252 39.042 19.2123 39.0445 19.1994C39.0465 19.1894 39.0486 19.1795 39.0507 19.1694C39.0548 19.1501 39.059 19.1306 39.0636 19.1111C39.0661 19.1004 39.0689 19.0898 39.0716 19.0791C39.0759 19.062 39.0802 19.0447 39.0849 19.0274C39.0893 19.0114 39.094 18.9954 39.0987 18.9792C39.1027 18.9655 39.1067 18.9517 39.1109 18.9379C39.1156 18.9227 39.1208 18.9074 39.1258 18.892C39.1309 18.8761 39.1361 18.8601 39.1415 18.8441C39.1455 18.8323 39.1496 18.8206 39.1537 18.8088C39.1603 18.7901 39.167 18.7714 39.1739 18.7526C39.1807 18.7344 39.1877 18.7162 39.1948 18.6978C39.1987 18.6878 39.2026 18.6778 39.2066 18.6678C39.2135 18.6502 39.2208 18.6325 39.2281 18.6148C39.237 18.5931 39.2462 18.5712 39.2556 18.5493C39.2594 18.5404 39.2632 18.5314 39.2671 18.5225C39.2754 18.5036 39.2839 18.4847 39.2924 18.4656C39.2978 18.4539 39.303 18.442 39.3084 18.4301C39.3185 18.4082 39.3288 18.3863 39.3393 18.3642C39.342 18.3585 39.3448 18.3528 39.3475 18.3471L39.3692 18.3023C39.3747 18.2911 39.3803 18.28 39.3859 18.2688C39.3926 18.2553 39.3992 18.2417 39.4061 18.2282C39.4308 18.1793 39.4566 18.1302 39.4831 18.0808C39.4985 18.052 39.5144 18.0232 39.5304 17.9942C39.5535 17.9523 39.577 17.9101 39.6012 17.8679C39.6162 17.8418 39.6315 17.8158 39.6469 17.7896C39.6715 17.7476 39.6966 17.7056 39.7221 17.6635C39.7369 17.6392 39.7521 17.6149 39.7672 17.5905C39.7941 17.547 39.8212 17.5035 39.8489 17.46C39.8639 17.4364 39.8791 17.4128 39.8944 17.3892C39.9243 17.3428 39.9546 17.2965 39.9854 17.2503C39.9981 17.2311 40.0109 17.2119 40.0238 17.1928C40.0583 17.1414 40.0931 17.0902 40.1283 17.0392C40.1377 17.0256 40.1471 17.0121 40.1565 16.9986C40.2417 16.8759 40.3285 16.7543 40.4159 16.635C40.4241 16.6238 40.4324 16.6127 40.4406 16.6015C40.6733 16.2852 40.9089 15.9848 41.1251 15.7166C41.1381 15.7005 41.151 15.6844 41.1639 15.6685C41.6329 15.0888 42.0027 14.6696 42.0417 14.5869Z" fill="#EFEFEF"/>
<path d="M42.0411 14.5723C42.0415 14.5723 42.0419 14.5723 42.0423 14.5724L42.0437 14.5729C42.0442 14.573 42.0446 14.5735 42.0448 14.5741C42.0448 14.5742 42.0448 14.5743 42.0449 14.5744C42.0458 14.5767 42.0446 14.5806 42.0417 14.5869C42.0387 14.5805 42.0373 14.5766 42.0384 14.5743C42.0388 14.5731 42.0396 14.5724 42.0411 14.5723Z" fill="#EFEFEF"/>
<path d="M14.3419 26.0111C11.3965 26.0111 8.88739 25.4984 6.81467 24.4729C4.76376 23.4256 3.19285 21.9965 2.10194 20.1856C1.01103 18.3747 0.465576 16.3238 0.465576 14.0329C0.465576 11.7202 1.00012 9.65835 2.06921 7.84744C3.16012 6.03653 4.74194 4.60744 6.81467 3.56017C8.88739 2.51289 11.3965 1.98926 14.3419 1.98926C17.3092 1.98926 19.8183 2.51289 21.8692 3.56017C23.9419 4.58562 25.5128 6.0038 26.5819 7.81471C27.6728 9.62562 28.2183 11.6984 28.2183 14.0329C28.2183 16.3238 27.6728 18.3747 26.5819 20.1856C25.5128 21.9965 23.9419 23.4256 21.8692 24.4729C19.8183 25.4984 17.3092 26.0111 14.3419 26.0111ZM14.3419 21.0365C16.5674 21.0365 18.3347 20.4584 19.6438 19.302C20.9529 18.1238 21.6074 16.4984 21.6074 14.4256V13.5747C21.6074 11.502 20.9529 9.88744 19.6438 8.73108C18.3347 7.5529 16.5674 6.9638 14.3419 6.9638C12.1165 6.9638 10.3492 7.5529 9.04012 8.73108C7.73103 9.88744 7.07649 11.502 7.07649 13.5747V14.4256C7.07649 16.4984 7.73103 18.1238 9.04012 19.302C10.3492 20.4584 12.1165 21.0365 14.3419 21.0365Z" fill="#EFEFEF"/>
</svg>
